<?xml version="1.0" standalone="no"?>
<svg xmlns:xlink="http://www.w3.org/1999/xlink" id="wave" style="transform:rotate(0deg); transition: 0.3s" viewBox="0 0 1440 180" version="1.1" xmlns="http://www.w3.org/2000/svg"><defs><linearGradient id="sw-gradient-0" x1="0" x2="0" y1="1" y2="0"><stop stop-color="rgba(102, 12, 130, 1)" offset="0%"/><stop stop-color="rgba(0, 0, 0, 1)" offset="100%"/></linearGradient></defs><path style="transform:translate(0, 0px); opacity:1" fill="url(#sw-gradient-0)" d="M0,108L40,105C80,102,160,96,240,93C320,90,400,90,480,102C560,114,640,138,720,144C800,150,880,138,960,120C1040,102,1120,78,1200,78C1280,78,1360,102,1440,93C1520,84,1600,42,1680,30C1760,18,1840,36,1920,54C2000,72,2080,90,2160,90C2240,90,2320,72,2400,63C2480,54,2560,54,2640,54C2720,54,2800,54,2880,72C2960,90,3040,126,3120,144C3200,162,3280,162,3360,150C3440,138,3520,114,3600,90C3680,66,3760,42,3840,30C3920,18,4000,18,4080,27C4160,36,4240,54,4320,63C4400,72,4480,72,4560,69C4640,66,4720,60,4800,51C4880,42,4960,30,5040,21C5120,12,5200,6,5280,24C5360,42,5440,84,5520,108C5600,132,5680,138,5720,141L5760,144L5760,180L5720,180C5680,180,5600,180,5520,180C5440,180,5360,180,5280,180C5200,180,5120,180,5040,180C4960,180,4880,180,4800,180C4720,180,4640,180,4560,180C4480,180,4400,180,4320,180C4240,180,4160,180,4080,180C4000,180,3920,180,3840,180C3760,180,3680,180,3600,180C3520,180,3440,180,3360,180C3280,180,3200,180,3120,180C3040,180,2960,180,2880,180C2800,180,2720,180,2640,180C2560,180,2480,180,2400,180C2320,180,2240,180,2160,180C2080,180,2000,180,1920,180C1840,180,1760,180,1680,180C1600,180,1520,180,1440,180C1360,180,1280,180,1200,180C1120,180,1040,180,960,180C880,180,800,180,720,180C640,180,560,180,480,180C400,180,320,180,240,180C160,180,80,180,40,180L0,180Z"/></svg>